# xmcd CD database file generated by freedbAccess_ocx
#
# Track frame offsets:
#       150
#       12473
#       31590
#       47683
#       57888
#       71303
#       82608
#       95640
#       106505
#       116683
#       132850
#       142143
#       158315
#       172773
#       191235
#       199438
#
# Disc length: 2821 seconds
#
# Revision: 0
# Processed by: cddbd v1.4PL0 Copyright (c) Steve Scherf et al.
# Submitted via: CDnGo 2.00
#
DISCID=c70b0310
DTITLE=Taxmeni - Zlata era
DYEAR=1995
DGENRE=Country
TTITLE0=Ven se divej
TTITLE1=Dedeckovi hodiny
TTITLE2=Tam do svejch plani
TTITLE3=Tulacka
TTITLE4=Mr. Banjo
TTITLE5=Dve radky stop
TTITLE6=Destive nabrezi
TTITLE7=Hledany muz
TTITLE8=Baltimore
TTITLE9=Ze se vdavas
TTITLE10=Otevri oci
TTITLE11=Mesto duchu
TTITLE12=Nashville
TTITLE13=Dlouhy cerny zavoj
TTITLE14=A taj ja zas v tom litam
TTITLE15=Jedu dal
EXTD=
EXTT0=
EXTT1=
EXTT2=
EXTT3=
EXTT4=
EXTT5=
EXTT6=
EXTT7=
EXTT8=
EXTT9=
EXTT10=
EXTT11=
EXTT12=
EXTT13=
EXTT14=
EXTT15=
PLAYORDER=
